<?xml version="1.0" encoding="UTF-8"?>
<svg width="227px" height="242px" viewBox="0 0 227 242" version="1.1" xmlns="http://www.w3.org/2000/svg" xmlns:xlink="http://www.w3.org/1999/xlink">
    <!-- Generator: Sketch 63.1 (92452) - https://sketch.com -->
    <title>Group 8</title>
    <desc>Created with Sketch.</desc>
    <g id="Page-2" stroke="none" stroke-width="1" fill="none" fill-rule="evenodd">
        <g id="otp-copy" transform="translate(-346.000000, -293.000000)">
            <g id="Group-8" transform="translate(304.000000, 265.000000)">
                <path d="M163.252045,275 C229.113131,275 287.215282,189.790123 244.225656,151.004938 C201.23603,112.219753 229.113131,37 163.252045,37 C97.3909592,37 44,90.2781148 44,156 C44,221.721885 97.3909592,275 163.252045,275 Z" id="Oval" fill="#FFCC06" opacity="0.300000012" transform="translate(151.500000, 156.000000) rotate(-28.000000) translate(-151.500000, -156.000000) "></path>
                <g id="Group-7" transform="translate(59.000000, 186.000000)" fill-rule="nonzero">
                    <path d="M177.1875,60 L32.8125,60 C14.7196875,60 -1.42108547e-14,46.542 -1.42108547e-14,30 C-1.42108547e-14,13.458 14.7196875,0 32.8125,0 L177.1875,0 C195.280313,0 210,13.458 210,30 C210,46.542 195.280313,60 177.1875,60 Z" id="Path" fill="#292B62"></path>
                    <circle id="Oval" fill="#E9EBEB" cx="84.2539062" cy="30.2539062" r="10.2539062"></circle>
                    <circle id="Oval" fill="#E9EBEB" cx="43.2539062" cy="30.2539062" r="10.2539062"></circle>
                    <g id="Group" transform="translate(115.000000, 19.000000)" fill="#E9EBEB">
                        <circle id="Oval" cx="10.2539062" cy="10.2539062" r="10.2539062"></circle>
                        <circle id="Oval" cx="51.2695312" cy="10.2539062" r="10.2539062"></circle>
                    </g>
                </g>
                <g id="Group-5" transform="translate(99.000000, 28.000000)" fill-rule="nonzero">
                    <g id="Group-4">
                        <path d="M99.4374151,76.5030571 L29.8891814,76.5030571 C25.088035,76.5030571 21.1956522,72.6106743 21.1956522,67.8095279 L21.1956522,43.4676461 C21.1956522,19.499586 40.6952382,0 64.6632982,0 C88.6313583,0 108.130944,19.499586 108.130944,43.4676461 L108.130944,67.8095279 C108.130944,72.6106743 104.238561,76.5030571 99.4374151,76.5030571 Z M38.5827106,59.1159986 L90.7438859,59.1159986 L90.7438859,43.4676461 C90.7438859,29.08681 79.0441343,17.3870584 64.6632982,17.3870584 C50.2824622,17.3870584 38.5827106,29.08681 38.5827106,43.4676461 L38.5827106,59.1159986 Z" id="Shape" fill="#292B62"></path>
                        <path d="M64.6632982,0 L64.6632982,17.3870584 C79.0441343,17.3870584 90.7438859,29.08681 90.7438859,43.4676461 L90.7438859,59.1159986 L64.6632982,59.1159986 L64.6632982,76.5030571 L99.4374151,76.5030571 C104.238561,76.5030571 108.130944,72.6106743 108.130944,67.8095279 L108.130944,43.4676461 C108.130944,19.499586 88.6313583,0 64.6632982,0 Z" id="Path" fill="#292B62"></path>
                        <path d="M119.722317,145.471722 L9.60427989,145.471722 C4.80313349,145.471722 0.910750679,141.579339 0.910750679,136.778193 L0.910750679,67.8095279 C0.910750679,63.0083815 4.80313349,59.1159986 9.60427989,59.1159986 L119.722317,59.1159986 C124.523463,59.1159986 128.415846,63.0083815 128.415846,67.8095279 L128.415846,136.778193 C128.415846,141.579339 124.523463,145.471722 119.722317,145.471722 Z" id="Path" fill="#FFCC06"></path>
                        <g id="Group" transform="translate(64.257416, 59.115999)" fill="#FFCC06">
                            <path d="M55.4649004,0 L0.40588202,0 L0.40588202,86.3557235 L55.4649004,86.3557235 C60.2660468,86.3557235 64.1584296,82.4633407 64.1584296,77.6621943 L64.1584296,8.69352921 C64.1584296,3.89238281 60.2660468,0 55.4649004,0 Z" id="Path"></path>
                        </g>
                    </g>
                    <path d="M79.1525136,96.7879586 C79.1525136,91.9868122 75.2601308,88.0944293 70.4589844,88.0944293 L58.8676121,88.0944293 C54.0664657,88.0944293 50.1740829,91.9868122 50.1740829,96.7879586 C50.1740829,100.571382 52.5955206,103.781613 55.969769,104.976104 L55.969769,108.379331 C55.969769,113.180477 59.8621518,117.07286 64.6632982,117.07286 C69.4644446,117.07286 73.3568274,113.180477 73.3568274,108.379331 L73.3568274,104.976104 C76.7310759,103.781613 79.1525136,100.571382 79.1525136,96.7879586 Z" id="Path" fill="#FF981E"></path>
                </g>
            </g>
        </g>
    </g>
</svg>